<?xml version="1.0" ?><svg height="32" viewBox="0 0 32 32" width="32" xmlns="http://www.w3.org/2000/svg"><g data-name="Layer 2" id="b"><path d="M24.737,4.22c-2.749-.829-5.951,.832-8.737,4.474-2.786-3.643-5.989-5.303-8.737-4.474-2.669,.809-4.263,3.798-4.263,7.998,0,9.759,12.067,15.44,12.581,15.677,.133,.062,.276,.092,.419,.092s.286-.031,.419-.092c.514-.237,12.581-5.918,12.581-15.677,0-4.199-1.594-7.189-4.263-7.998Z" fill="#f8bbd0"/></g><g data-name="Layer 3" id="c"><path d="M24.737,4.22c-2.749-.829-5.951,.832-8.737,4.474-2.786-3.643-5.989-5.303-8.737-4.474-2.669,.809-4.263,3.798-4.263,7.998,0,9.759,12.067,15.44,12.581,15.677,.133,.062,.276,.092,.419,.092s.286-.031,.419-.092c.211-.097,2.376-1.117,4.851-2.96,.211-.061,.41-.165,.547-.359,.02-.028,.023-.061,.04-.09,3.404-2.67,7.143-6.836,7.143-12.269,0-4.199-1.594-7.189-4.263-7.998Zm-3.87,18.462L5.03,11.503c.038-.745,.135-1.427,.287-2.041l16.809,12.14c-.417,.385-.838,.742-1.258,1.08Zm-4.867,3.188c-1.887-.975-9.513-5.296-10.797-11.797l13.98,9.868c-1.384,.956-2.581,1.617-3.184,1.929Zm7.543-5.712L6.092,7.555c.458-.712,1.045-1.207,1.751-1.421,.275-.083,.561-.124,.857-.124,1.973,0,4.37,1.812,6.468,4.959,.371,.557,1.293,.557,1.664,0,2.414-3.621,5.223-5.478,7.325-4.835,1.78,.539,2.843,2.813,2.843,6.083,0,3.107-1.527,5.783-3.457,7.941Z" fill="#c51162"/></g></svg>